<?xml version="1.0" encoding="utf-8"?>
<!-- Generator: Adobe Illustrator 28.0.0, SVG Export Plug-In . SVG Version: 6.00 Build 0)  -->
<svg version="1.1" id="Calque_1" xmlns="http://www.w3.org/2000/svg" xmlns:xlink="http://www.w3.org/1999/xlink" x="0px" y="0px"
	 viewBox="0 0 260 278.1" style="enable-background:new 0 0 260 278.1;" xml:space="preserve">
<style type="text/css">
	.st0{fill:#FFFFFF;}
</style>
<path class="st0" d="M0,258.1h260v20H0V258.1z"/>
<path d="M106.3,13.1c9.3-2,17.8-3.9,26.2-5.7c4.4-0.9,7.9,0.6,10.2,4.6c2,3.5,1.6,7.1-1,10.3c-2.8,3.4-6.5,3.6-10.5,2.8
	c-7-1.5-14-3.1-21-4.6c-2.6-0.6-8.4,2.9-8.5,5.4c-0.3,6.4-0.1,12.9-0.1,19.6c2.3,0,4-0.1,5.6,0c4,0.3,6.4,2.5,7.2,6.5
	c1.4,6.6,2.9,7.9,9.8,7.9c13.7,0,27.3,0,41,0c13.1,0,19.9,6.9,19.9,20.1c0,9.2-0.1,18.3,0.1,27.5c0,1.6,1.5,3.2,2.2,4.8
	c0.6,1.3,1.5,2.7,1.3,3.8c-0.1,0.9-1.8,2.1-2.8,2.1c-9.7,0.2-19.3,0.2-29,0c-1.1,0-2.7-1.4-3.1-2.5c-0.3-0.8,0.8-2.2,1.4-3.3
	c0.7-1.3,2.2-2.4,2.2-3.7c0.2-6.3,0.1-12.7,0.1-19c0-4.1-2.3-6.2-6.2-6.3c-12.1-0.1-24.3,0-36.6,0c-1.1,6.6-4,11.8-10.5,13.6
	c-3.1,0.9-6.6,0.6-9.9,0.7c-13.2,0.1-15.9-1.8-20.1-14H32.1c-2,9.8-6.6,14.1-13.8,13.3c-17.2,0.3-15.1-50.8,0-51.4
	c8.9,1.1,12.7,6.4,13.9,14.4c12,0,23.6,0.1,35.3,0c4.2,0,6.7-2.2,7.4-6.6c1-6,2.9-7.5,9.1-7.7c1.1,0,2.2-0.2,3.8-0.2
	c0-6.4,0.1-12.5-0.1-18.6c-0.1-2.9-5.5-6.7-8.4-6.1c-7.3,1.5-14.6,3.2-22,4.7c-4.3,0.9-8.6,0.1-10.2-4.1c-1.1-2.8-1-6.9,0.3-9.7
	c1.8-4,6-4.7,10.4-3.8c8.3,1.9,16.6,3.6,25.4,5.5c2-3.3,3.9-6.7,5.9-9.9C91.7-1,97.7-1.1,100.4,3C102.5,6.2,104.3,9.6,106.3,13.1
	L106.3,13.1z"/>
</svg>
